<?xml version="1.0" standalone="no"?><!DOCTYPE svg PUBLIC "-//W3C//DTD SVG 1.1//EN" "http://www.w3.org/Graphics/SVG/1.1/DTD/svg11.dtd">
<svg t="1482739636059" class="icon" style="" viewBox="0 0 1024 1024" version="1.1" xmlns="http://www.w3.org/2000/svg" p-id="1845" xmlns:xlink="http://www.w3.org/1999/xlink" width="50" height="50">
	<defs>
		<style type="text/css"></style>
	</defs>
	<path d="M778.158872 334.797136" p-id="1846" fill="#e03f8e"></path>
	<path d="M788.268114 334.797136" p-id="1847" fill="#e03f8e"></path>
	<path d="M436.57517 958.330348c-42.175565 0-76.489068-34.31248-76.489068-76.488045 0-42.176588 34.31248-76.489068 76.489068-76.489068 42.176588 0 76.489068 34.31248 76.489068 76.489068C513.064238 924.017868 478.751758 958.330348 436.57517 958.330348zM436.57517 836.05242c-25.248034 0-45.789882 20.540825-45.789882 45.789882 0 25.248034 20.540825 45.788859 45.789882 45.788859 25.249057 0 45.789882-20.540825 45.789882-45.788859C482.365052 856.593246 461.824227 836.05242 436.57517 836.05242z" p-id="1848" fill="#e03f8e"></path>
	<path d="M792.739962 958.180945c-42.176588 0-76.489068-34.31248-76.489068-76.489068s34.31248-76.489068 76.489068-76.489068 76.489068 34.31248 76.489068 76.489068S834.916551 958.180945 792.739962 958.180945zM792.739962 835.901994c-25.249057 0-45.789882 20.540825-45.789882 45.789882s20.540825 45.789882 45.789882 45.789882 45.789882-20.540825 45.789882-45.789882S817.989019 835.901994 792.739962 835.901994z" p-id="1849" fill="#e03f8e"></path>
	<path d="M701.140755 516.945639l30.699186 0 0 158.100808-30.699186 0 0-158.100808Z" p-id="1850" fill="#e03f8e"></path>
	<path d="M781.470291 518.480598l30.699186 0 0 156.565848-30.699186 0 0-156.565848Z" p-id="1851" fill="#e03f8e"></path>
	<path d="M495.456209 119.222335l0 0 0 178.226171 0 0 0-178.226171Z" p-id="1852" fill="#e03f8e"></path>
	<path d="M631.363886 140.495649l21.707394 21.707394-188.542468 188.542468-21.707394-21.707394 188.542468-188.542468Z" p-id="1853" fill="#e03f8e"></path>
	<path d="M631.306012 140.408136l171.92184 171.92184-21.707394 21.707394-171.92184-171.92184 21.707394-21.707394Z" p-id="1854" fill="#e03f8e"></path>
	<path d="M570.669214 117.175723l0 0 0 110.685915 0 0 0-110.685915Z" p-id="1855" fill="#e03f8e"></path>
	<path d="M464.776507 307.476549l68.160495 68.160495-21.707394 21.707394-68.160495-68.160495 21.707394-21.707394Z" p-id="1856" fill="#e03f8e"></path>
	<path d="M794.461125 303.670294l21.707394 21.707394-74.729152 74.729152-21.707394-21.707394 74.729152-74.729152Z" p-id="1857" fill="#e03f8e"></path>
	<path d="M495.456209 131.841747l75.213006 0 0 2.046612-75.213006 0 0-2.046612Z" p-id="1858" fill="#e03f8e"></path>
	<path d="M543.039947 516.945639l30.699186 0 0 157.589155-30.699186 0 0-157.589155Z" p-id="1859" fill="#e03f8e"></path>
	<path d="M621.919459 516.945639l30.699186 0 0 158.039409-30.699186 0 0-158.039409Z" p-id="1860" fill="#e03f8e"></path>
	<path d="M463.733717 516.945639l30.699186 0 0 157.589155-30.699186 0 0-157.589155Z" p-id="1861" fill="#e03f8e"></path>
	<path d="M384.427486 517.968945l30.699186 0 0 156.565848-30.699186 0 0-156.565848Z" p-id="1862" fill="#e03f8e"></path>
	<path d="M893.967458 797.901519 863.492376 793.735639 921.293827 375.146099 951.769932 375.041722Z" p-id="1863" fill="#e03f8e"></path>
	<path d="M362.313019 788.047046l-28.788908 9.859007-157.79384-460.767754 28.788908-9.859007 157.79384 460.767754Z" p-id="1864" fill="#e03f8e"></path>
	<path d="M65.290005 327.032288l139.16248 0 0 27.718295-139.16248 0 0-27.718295Z" p-id="1865" fill="#e03f8e"></path>
	<path d="M477.018278 113.084545l27.718295 0 0 188.199313-27.718295 0 0-188.199313Z" p-id="1866" fill="#e03f8e"></path>
	<path d="M559.880497 113.00268l27.718295 0 0 114.858958-27.718295 0 0-114.858958Z" p-id="1867" fill="#e03f8e"></path>
	<path d="M847.428515 194.647165l27.718295 0 0 183.939289-27.718295 0 0-183.939289Z" p-id="1868" fill="#e03f8e"></path>
	<path d="M477.018278 113.00268l110.579491 0 0 27.718295-110.579491 0 0-27.718295Z" p-id="1869" fill="#e03f8e"></path>
	<path d="M671.464875 194.476273l203.681936 0 0 27.718295-203.681936 0 0-27.718295Z" p-id="1870" fill="#e03f8e"></path>
	<path d="M951.850773 374.650819 946.79871 405.350005 374.194424 405.350005 374.194424 374.650819Z" p-id="1871" fill="#e03f8e"></path>
	<path d="M895.960859 767.202333 893.933689 797.901519 333.518003 797.901519 333.518003 767.202333Z" p-id="1872" fill="#e03f8e"></path>
</svg>