<?xml version="1.0" standalone="no"?><!DOCTYPE svg PUBLIC "-//W3C//DTD SVG 1.1//EN" "http://www.w3.org/Graphics/SVG/1.1/DTD/svg11.dtd">
<svg width="64" height="64" viewBox="3.7 3.7 56.5 56.5" version="1.1" xmlns="http://www.w3.org/2000/svg" xmlns:xlink="http://www.w3.org/1999/xlink">
    <defs>
        <style type="text/css"><![CDATA[ @font-face {
    font-family: ifont;
    src: url("//at.alicdn.com/t/font_1442373896_4754455.eot?#iefix") format("embedded-opentype"), url("//at.alicdn.com/t/font_1442373896_4754455.woff") format("woff"), url("//at.alicdn.com/t/font_1442373896_4754455.ttf") format("truetype"), url("//at.alicdn.com/t/font_1442373896_4754455.svg#ifont") format("svg");
}

]]></style>
    </defs>
    <g class="transform-group">
        <g transform="scale(0.0625, 0.0625)">
            <path d="M308.192709 344.503195m-37.696554 0a36.838 36.838 0 1 0 75.393107 0 36.838 36.838 0 1 0-75.393107 0ZM593.603041 539.442002m-29.510104 0a28.838 28.838 0 1 0 59.020208 0 28.838 28.838 0 1 0-59.020208 0ZM500.482177 344.503195m-37.696554 0a36.838 36.838 0 1 0 75.393107 0 36.838 36.838 0 1 0-75.393107 0ZM813.979194 61.609173 208.995453 61.609173c-80.099293 0-145.035234 65.147766-145.035234 145.512095L63.960219 811.351855c0 80.364329 64.935941 145.512095 145.035234 145.512095l604.983741 0c80.100316 0 145.035234-65.147766 145.035234-145.512095L959.014428 207.122291C959.015452 126.756939 894.080533 61.609173 813.979194 61.609173zM399.842059 661.400658c-33.871435 0-61.108776-6.918573-95.051843-13.624299l-94.859461 47.563272 27.13808-81.628112c-67.935252-47.481408-108.585067-108.655675-108.585067-183.206602 0-129.11259 122.1889-230.774991 271.358291-230.774991 133.427872 0 250.313999 81.236186 273.795806 190.570313-8.633634-0.964978-17.334807-1.594311-26.1291-1.594311-128.900765 0-230.705406 96.198969-230.705406 214.751039 0 19.73139 3.070942 38.733163 8.373715 56.861032C416.803359 660.97701 408.358013 661.400658 399.842059 661.400658zM800.123628 756.453525l20.410865 67.815525-74.436316-40.770566c-27.139104 6.80294-54.398958 13.626345-81.422428 13.626345-129.108496 0-230.797503-88.24788-230.797503-196.924022 0-108.495016 101.689007-196.929138 230.797503-196.929138 121.937167 0 230.496651 88.434122 230.496651 196.929138C895.172401 661.400658 854.591147 715.590861 800.123628 756.453525zM741.470787 539.442002m-29.510104 0a28.838 28.838 0 1 0 59.020208 0 28.838 28.838 0 1 0-59.020208 0Z" fill="#11cd6e"></path>
        </g>
    </g>
</svg>